# xmcd
#
# Track frame offsets: 
#        150
#        15372
#        28425
#        41640
#        55520
#        69490
#        81957
#        95754
#        109210
#        127072
#        137155
#        151890
#        165137
#        177487
#
# Disc length: 2537 seconds
#
# Revision: 1
# Processed by: cddbd v1.5.2PL0 Copyright (c) Steve Scherf et al.
# Submitted via: ExactAudioCopy v0.99pb4
#
DISCID=b809e70e
DTITLE=James Hand - Shadows Where the Magic Was
DYEAR=1997
DGENRE=Country
TTITLE0=Over There That's Frank
TTITLE1=Baby Baby Don't Tell Me That
TTITLE2=I Heard Mama Callin'
TTITLE3=Heart Of Mine
TTITLE4=I Can't Afford To Go
TTITLE5=The Banks Of The Brazos
TTITLE6=If You Can't Tell The Difference
TTITLE7=Little Bitty Slip
TTITLE8=Shodows Where The Magic Was
TTITLE9=Lord Above Can You Hear Me
TTITLE10=Not Worth The Trouble Anymore
TTITLE11=Merry Christmas Darlin'
TTITLE12=Everybody Got It But Me
TTITLE13=My Hearts' Been Cheatin' On Me
EXTD=YEAR: 0
EXTT0=
EXTT1=
EXTT2=
EXTT3=
EXTT4=
EXTT5=
EXTT6=
EXTT7=
EXTT8=
EXTT9=
EXTT10=
EXTT11=
EXTT12=
EXTT13=
PLAYORDER=
